<svg xmlns="http://www.w3.org/2000/svg" xmlns:xlink="http://www.w3.org/1999/xlink" width="120" height="120" viewBox="0 0 120 120">
<defs>
    <style>.cls-1 {fill-rule: evenodd;fill: url(#linear-gradient);}</style>
    <linearGradient id="linear-gradient" x1="59.984" y1="113.969" x2="59.984" y2="7" gradientUnits="userSpaceOnUse">
      <stop offset="0" stop-color="#2392d5"/>
      <stop offset="1" stop-color="#09254e"/>
    </linearGradient>
  </defs>
  <path class="cls-1" d="M58.528,7C67,7,75.393,8.429,82.927,12.605c5.18,2.722,10.831,4.843,16.482,4.693,1.05,3.285.871,6.617,0.989,9.855,0,3.285-.085,6.617-0.264,9.855-0.329,3.285,0,6.9-1.6,9.855-0.942-.892-1.1-2.206-1.46-3.379a56.423,56.423,0,0,0-1.884-5.631A42.658,42.658,0,0,0,89.068,26.59C85.3,21.428,80.121,17.251,73.528,15.8A22.835,22.835,0,0,0,56.1,19.175c-3.3,1.877-5.7,4.74-8.005,7.509A48.941,48.941,0,0,0,40.094,42.64l-0.066,0A69.907,69.907,0,0,0,37.3,58.6a76.341,76.341,0,0,0,.565,12.671c0.424,2.346.895,4.693,1.46,7.039a54.251,54.251,0,0,0,4.568,11.732,48.728,48.728,0,0,0,8.476,10.793,24.893,24.893,0,0,0,13.656,6.57c3.3-.141,6.734.892,8.947-1.548,1.2-2.816,1.21-5.632,1.413-8.448-0.085-5.631.018-10.794-.038-16.425a11.184,11.184,0,0,0-1.7-5.162c-2.355-3.238-6.593-5.209-10.831-6.1-1.413-.469-3.061-0.61-4.191-1.689-0.753-.986.424-1.835,1.366-1.6,15.54-.014,31.551,0,47.091-0.009a28.677,28.677,0,0,1,3.861.113c0.014,0.235.047,0.774,0.061,1.032-1.742,1.314-3.908,1.314-5.65,2.253a9.707,9.707,0,0,0-4.474,4.317l0.085-.113c-0.994,1.877-.613,4.6-0.754,7.039,0.094,3.754.028,7.555,0.033,11.263-0.024,2.346-.023,4.693-0.037,7.039a31.236,31.236,0,0,1-8.006,6.1c-9.418,5.866-20.72,8.034-32.022,8.447a48.8,48.8,0,0,1-20.249-3.144,36.333,36.333,0,0,1-12.714-7.04l-0.137,0A62.229,62.229,0,0,1,17.72,92.468l0.235-.056c-0.518,0-.673-0.723-0.989-1.033a60.515,60.515,0,0,1-5.18-10.324l-0.052-.023a48.014,48.014,0,0,1-2.307-7.509A50.565,50.565,0,0,1,8.015,63.2,59.3,59.3,0,0,1,10.7,43.489a55.077,55.077,0,0,1,8.947-16.894,48.4,48.4,0,0,1,28.725-18.3C51.668,7.645,58.528,7,58.528,7Z"/>
</svg>