<?xml version="1.0" standalone="no"?>
<!DOCTYPE svg PUBLIC "-//W3C//DTD SVG 20010904//EN"
 "http://www.w3.org/TR/2001/REC-SVG-20010904/DTD/svg10.dtd">
<svg version="1.0" xmlns="http://www.w3.org/2000/svg"
 width="260.000000pt" height="260.000000pt" viewBox="0 0 260.000000 260.000000"
 preserveAspectRatio="xMidYMid meet">
<g transform="translate(0.000000,260.000000) scale(0.100000,-0.100000)"
fill="#000000" stroke="none">
<path d="M1145 2435 c-135 -21 -157 -26 -239 -56 -248 -90 -457 -277 -593
-529 -135 -253 -176 -593 -102 -867 58 -220 151 -384 304 -539 137 -139 227
-196 405 -254 147 -48 269 -64 430 -56 69 3 139 8 155 11 17 3 46 8 65 11 19
3 48 8 65 11 128 21 303 93 429 177 139 93 128 62 130 369 1 285 0 279 60 338
15 15 54 37 89 49 70 26 89 38 81 51 -3 5 -250 9 -563 9 -484 0 -560 -2 -571
-15 -10 -13 -6 -18 31 -35 24 -11 51 -20 60 -20 30 0 142 -50 184 -82 26 -20
53 -52 66 -81 21 -45 23 -60 23 -260 0 -386 -9 -404 -189 -393 -189 11 -341
113 -476 318 -81 123 -135 269 -164 443 -3 17 -7 44 -10 60 -6 38 -7 281 -1
315 2 14 7 47 11 73 17 127 54 245 117 374 130 267 344 419 571 408 176 -8
325 -103 441 -279 66 -99 86 -141 134 -282 21 -60 42 -108 47 -106 17 4 25 52
32 177 12 221 6 425 -12 443 -3 4 -18 7 -33 8 -100 5 -153 22 -333 105 -123
57 -229 91 -319 104 -85 12 -245 12 -325 0z"/>
</g>
</svg>
